<svg xmlns="http://www.w3.org/2000/svg" viewBox="0 0 24 24"><defs><style>.cls-1{isolation:isolate;}.cls-2{opacity:0.15;mix-blend-mode:multiply;}.cls-3,.cls-4{fill:#fff;}.cls-4{fill-rule:evenodd;}</style></defs><title>Asset</title><g class="cls-1"><g id="Layer_1" data-name="Layer 1"><g id="_Group_" data-name="&lt;Group&gt;"><path class="cls-2" d="M0,12A12,12,0,1,0,12,0,12,12,0,0,0,0,12H0Z"/><g id="_Group_2" data-name="&lt;Group&gt;"><path class="cls-3" d="M1,12A11,11,0,1,1,12,23,11,11,0,0,1,1,12M0,12A12,12,0,1,0,12,0,12,12,0,0,0,0,12H0Z"/><path class="cls-4" d="M9,7.88a1.11,1.11,0,0,0,.37.82h0L13,12l-3.6,3.3h0A1.12,1.12,0,1,0,10.88,17h0l4.5-4.12A1.13,1.13,0,0,0,15.75,12a1.12,1.12,0,0,0-.37-0.83L10.88,7h0A1.12,1.12,0,0,0,9,7.88H9Z"/></g></g></g></g></svg>