<?xml version="1.0" encoding="utf-8"?>
<!-- Generator: Adobe Illustrator 17.1.0, SVG Export Plug-In . SVG Version: 6.00 Build 0)  -->
<!DOCTYPE svg PUBLIC "-//W3C//DTD SVG 1.1//EN" "http://www.w3.org/Graphics/SVG/1.1/DTD/svg11.dtd">
<svg version="1.1" id="Layer_1" xmlns="http://www.w3.org/2000/svg" xmlns:xlink="http://www.w3.org/1999/xlink" x="0px" y="0px"
	 viewBox="0 0 45 45" enable-background="new 0 0 45 45" xml:space="preserve">
<path d="M33,16.8c0,0.6-0.2,1.2-0.6,1.8c-0.4,0.6-0.8,1-1.4,1.4c-2.9,2-4.7,3.3-5.4,3.8c-0.1,0.1-0.2,0.2-0.5,0.4s-0.5,0.3-0.6,0.4
	c-0.2,0.1-0.4,0.2-0.6,0.4c-0.2,0.1-0.5,0.2-0.7,0.3c-0.2,0.1-0.4,0.1-0.6,0.1h0h0c-0.2,0-0.4,0-0.6-0.1s-0.4-0.2-0.7-0.3
	c-0.2-0.1-0.4-0.3-0.6-0.4c-0.2-0.1-0.4-0.3-0.6-0.4s-0.4-0.3-0.5-0.4c-0.7-0.5-1.7-1.2-3-2.1s-2.1-1.5-2.4-1.7
	c-0.5-0.3-0.9-0.8-1.4-1.3c-0.4-0.6-0.6-1.1-0.6-1.6c0-0.6,0.2-1.1,0.5-1.5S13.5,15,14,15h17.1c0.5,0,0.9,0.2,1.3,0.5
	C32.8,15.9,33,16.3,33,16.8z M33,20.2v9.2c0,0.5-0.2,0.9-0.5,1.3s-0.8,0.5-1.3,0.5H14c-0.5,0-0.9-0.2-1.3-0.5
	c-0.4-0.4-0.5-0.8-0.5-1.3v-9.2c0.3,0.4,0.7,0.7,1.2,1c2.8,1.9,4.7,3.2,5.8,4c0.4,0.3,0.8,0.6,1.1,0.8c0.3,0.2,0.6,0.4,1.1,0.6
	c0.5,0.2,0.9,0.3,1.3,0.3h0h0c0.4,0,0.8-0.1,1.3-0.3c0.5-0.2,0.8-0.4,1.1-0.6c0.3-0.2,0.6-0.4,1.1-0.8c1.3-1,3.2-2.3,5.8-4
	C32.2,20.9,32.6,20.6,33,20.2z"/>
<path d="M22.5,43.1c-11.3,0-20.6-9.2-20.6-20.6c0-11.3,9.2-20.6,20.6-20.6c11.3,0,20.6,9.2,20.6,20.6C43.1,33.8,33.8,43.1,22.5,43.1
	z M22.5,3.1c-10.7,0-19.4,8.7-19.4,19.4s8.7,19.4,19.4,19.4s19.4-8.7,19.4-19.4S33.2,3.1,22.5,3.1z"/>
</svg>
