<?xml version="1.0" encoding="utf-8"?>
<!-- Generator: Adobe Illustrator 17.1.0, SVG Export Plug-In . SVG Version: 6.00 Build 0)  -->
<!DOCTYPE svg PUBLIC "-//W3C//DTD SVG 1.1//EN" "http://www.w3.org/Graphics/SVG/1.1/DTD/svg11.dtd">
<svg version="1.1" id="Layer_1" xmlns="http://www.w3.org/2000/svg" xmlns:xlink="http://www.w3.org/1999/xlink" x="0px" y="0px"
	 viewBox="0 0 45 45" enable-background="new 0 0 45 45" xml:space="preserve">
<g>
	<path d="M22.5,43.1c-11.3,0-20.6-9.2-20.6-20.6c0-11.3,9.2-20.6,20.6-20.6c11.3,0,20.6,9.2,20.6,20.6
		C43.1,33.8,33.8,43.1,22.5,43.1z M22.5,3.1c-10.7,0-19.4,8.7-19.4,19.4s8.7,19.4,19.4,19.4s19.4-8.7,19.4-19.4S33.2,3.1,22.5,3.1z"
		/>
	<g>
		<path d="M27.6,12.1v3.2h-1.9c-0.7,0-1.2,0.1-1.4,0.4c-0.2,0.3-0.4,0.7-0.4,1.3v2.3h3.6L27,23h-3.1v9.3h-3.7V23H17v-3.6h3.1v-2.7
			c0-1.5,0.4-2.7,1.3-3.5c0.8-0.8,2-1.3,3.4-1.3C26,11.9,26.9,12,27.6,12.1z"/>
	</g>
</g>
</svg>
