<?xml version="1.0" encoding="utf-8"?>
<!-- Generator: Adobe Illustrator 17.1.0, SVG Export Plug-In . SVG Version: 6.00 Build 0)  -->
<!DOCTYPE svg PUBLIC "-//W3C//DTD SVG 1.1//EN" "http://www.w3.org/Graphics/SVG/1.1/DTD/svg11.dtd">
<svg version="1.1" id="Layer_1" xmlns="http://www.w3.org/2000/svg" xmlns:xlink="http://www.w3.org/1999/xlink" x="0px" y="0px"
	 viewBox="0 0 45 45" enable-background="new 0 0 45 45" xml:space="preserve">
<g>
	<path d="M22.5,43.1c-11.3,0-20.6-9.2-20.6-20.6c0-11.3,9.2-20.6,20.6-20.6c11.3,0,20.6,9.2,20.6,20.6
		C43.1,33.8,33.8,43.1,22.5,43.1z M22.5,3.1c-10.7,0-19.4,8.7-19.4,19.4s8.7,19.4,19.4,19.4s19.4-8.7,19.4-19.4S33.2,3.1,22.5,3.1z"
		/>
	<g>
		<path d="M31.6,27.2c0,0.2,0,0.5-0.1,0.9c-0.1,0.4-0.2,0.7-0.3,0.9c-0.2,0.4-0.7,0.9-1.6,1.4C28.8,30.8,28,31,27.2,31
			c-0.2,0-0.5,0-0.7,0c-0.2,0-0.5-0.1-0.7-0.2c-0.3-0.1-0.5-0.1-0.6-0.2s-0.4-0.1-0.7-0.3c-0.3-0.1-0.6-0.2-0.6-0.2
			c-0.8-0.3-1.6-0.7-2.3-1.1c-1.1-0.7-2.2-1.6-3.4-2.8s-2.1-2.3-2.8-3.4c-0.4-0.7-0.8-1.4-1.1-2.3c0-0.1-0.1-0.3-0.2-0.6
			c-0.1-0.3-0.2-0.6-0.3-0.7c0-0.1-0.1-0.3-0.2-0.6s-0.1-0.5-0.2-0.7c0-0.2,0-0.4,0-0.7c0-0.8,0.2-1.6,0.7-2.4
			c0.5-0.9,0.9-1.4,1.4-1.6c0.2-0.1,0.5-0.2,0.9-0.3s0.7-0.1,0.9-0.1c0.1,0,0.2,0,0.3,0c0.2,0.1,0.4,0.4,0.7,1
			c0.1,0.2,0.2,0.4,0.4,0.7s0.3,0.6,0.5,0.8c0.1,0.2,0.3,0.5,0.4,0.7c0,0,0.1,0.1,0.2,0.3c0.1,0.2,0.2,0.3,0.3,0.5
			C20,17,20,17.1,20,17.2c0,0.2-0.1,0.4-0.4,0.6c-0.2,0.3-0.5,0.5-0.8,0.7s-0.6,0.4-0.8,0.7s-0.4,0.4-0.4,0.6c0,0.1,0,0.2,0.1,0.3
			c0,0.1,0.1,0.2,0.1,0.3c0,0.1,0.1,0.2,0.2,0.3c0.1,0.1,0.1,0.2,0.1,0.2c0.7,1.2,1.4,2.2,2.2,3c0.8,0.8,1.9,1.6,3,2.2
			c0,0,0.1,0.1,0.2,0.1c0.1,0.1,0.2,0.1,0.3,0.2c0.1,0,0.1,0.1,0.3,0.1s0.2,0.1,0.3,0.1c0.2,0,0.4-0.1,0.6-0.4
			c0.2-0.2,0.5-0.5,0.7-0.8c0.2-0.3,0.5-0.6,0.7-0.8c0.3-0.2,0.5-0.4,0.6-0.4c0.1,0,0.2,0,0.4,0.1c0.1,0.1,0.3,0.2,0.5,0.3
			c0.2,0.1,0.3,0.2,0.3,0.2c0.2,0.1,0.4,0.3,0.7,0.4c0.2,0.1,0.5,0.3,0.8,0.5c0.3,0.2,0.5,0.3,0.7,0.4c0.6,0.3,0.9,0.5,1,0.7
			C31.6,27,31.6,27.1,31.6,27.2z"/>
	</g>
</g>
</svg>
